<?xml version="1.0" encoding="utf-8"?>
<!-- Generator: Adobe Illustrator 26.5.0, SVG Export Plug-In . SVG Version: 6.00 Build 0)  -->
<svg version="1.0" id="katman_1" xmlns="http://www.w3.org/2000/svg" xmlns:xlink="http://www.w3.org/1999/xlink" x="0px" y="0px"
	 viewBox="0 0 512 382" style="enable-background:new 0 0 512 382;" xml:space="preserve">
<style type="text/css">
	.st0{fill:#70211D;}
	.st1{fill:#ED7344;}
</style>
<g>
	<path class="st0" d="M163.09,91.54c-11.56,9.39-19.07,23.01-20.67,38.16L128,266.95l0.08,2.36l0.04,0.79
		c0.54,8.64,4.22,16.67,10.22,22.68c6.52,6.54,15.39,10.3,24.79,10.29l134.63-0.11l1.41-0.02c13.72-0.45,26.45-5.6,36.36-14.56
		c11.27-10.19,17.84-24.3,18.62-39.21c0.78-14.91-4.29-29.63-14.44-40.95L240.61,97.7l-0.96-1.04c-9.5-9.95-21.83-16.01-35.08-17.42
		C189.48,77.63,174.65,82.16,163.09,91.54z M199.22,129.9c1.36,0.14,2.62,0.77,3.57,1.75l99.22,110.67c1.06,1.18,1.56,2.64,1.48,4.2
		c-0.08,1.55-0.73,2.96-1.91,4.02c-1.01,0.92-2.32,1.45-3.68,1.49l-117.34,0.1l12.3-117.07c0.17-1.57,0.91-2.92,2.12-3.9
		C196.18,130.18,197.65,129.73,199.22,129.9z"/>
	<path class="st1" d="M348.74,63l-185.53,0.15l-1.51,0.04l-0.85,0.04c-7.85,0.54-15.3,3.7-21.16,9
		c-7.01,6.34-11.11,15.14-11.6,24.42c-0.48,9.28,2.68,18.46,8.99,25.5L303.07,307.3l1.04,1.1l0.6,0.61
		c5.65,5.51,12.97,8.96,20.81,9.79c9.39,1,18.64-1.82,25.83-7.66c7.19-5.84,11.88-14.34,12.87-23.76L384,99.27l-0.08-2.37
		l-0.04-0.79c-0.55-8.67-4.24-16.74-10.26-22.77C367.08,66.77,358.17,62.99,348.74,63z M331.45,113.95l-14.02,133.26L198.08,114.06
		L331.45,113.95z"/>
</g>
</svg>
